<svg width="15" height="15" viewBox="0 0 15 15" fill="none" xmlns="http://www.w3.org/2000/svg">
<g id="jackpot-menu postlog VIP">
<g id="sidebar-panel">
<g id="Frame 2135557616">
<g id="menu">
<g id="Frame 16923">
<g id="menu_2">
<g id="Frame 2135557531">
<g id="Frame 2135557506">
<g id="Frame 2135557524">
<g id="bonuses 1" clip-path="url(#clip0_0_1)">
<path id="Vector" d="M15.4793 12.6793L14.907 7.1533C14.83 6.41153 14.4706 5.74163 13.8957 5.2668L13.7058 5.11023L13.8521 4.91517C14.2525 4.37873 14.4629 3.74477 14.4629 3.08C14.4629 1.38087 13.0821 0 11.3829 0C10.1715 0 9.02667 0.53387 8.24127 1.46557L8.04627 1.69913L7.85117 1.46557C7.06577 0.53387 5.92104 0 4.70957 0C3.01044 0 1.62957 1.38087 1.62957 3.08C1.62957 3.74477 1.8426 4.37873 2.243 4.91517L2.3893 5.11023L2.20194 5.2668C1.62444 5.7442 1.26767 6.41667 1.19324 7.161L0.615739 12.9386C0.608039 13.013 0.605469 13.0874 0.605469 13.1619C0.605469 14.3964 1.60904 15.4 2.84104 15.4H13.254C14.4886 15.4 15.4922 14.3964 15.4922 13.1619V12.9078C15.4922 12.8308 15.4896 12.7563 15.4793 12.6768V12.6793ZM7.2788 13.86H2.84104C2.45604 13.86 2.14547 13.5469 2.14547 13.1619C2.14547 13.1388 2.14547 13.1157 2.14804 13.0926L2.72554 7.315C2.79227 6.65537 3.34154 6.16 4.00374 6.16H7.2788V13.86ZM7.2788 4.62H4.71214C3.86257 4.62 3.17214 3.92957 3.17214 3.08C3.17214 2.23043 3.86257 1.54 4.71214 1.54C6.12637 1.54 7.2788 2.69243 7.2788 4.10667V4.62ZM8.81877 4.10667C8.81877 2.69243 9.97127 1.54 11.3855 1.54C12.2351 1.54 12.9255 2.23043 12.9255 3.08C12.9255 3.92957 12.2351 4.62 11.3855 4.62H8.81877V4.10667ZM13.9522 13.1619C13.9522 13.5469 13.639 13.86 13.254 13.86H8.81877V6.16H12.099C12.7587 6.16 13.3079 6.65537 13.3747 7.3124L13.947 12.8359C13.947 12.8616 13.9496 12.8847 13.9496 12.9103V13.1644L13.9522 13.1619Z" fill="#1677E8"/>
</g>
</g>
</g>
</g>
</g>
</g>
</g>
</g>
</g>
</g>
<defs>
<clipPath id="clip0_0_1">
<rect width="15" height="15" fill="white"/>
</clipPath>
</defs>
</svg>
