<svg width="20" height="20" viewBox="0 0 20 20" fill="none" xmlns="http://www.w3.org/2000/svg">
<g id="1">
<g id="desktop-main">
<g id="BonusBuy">
<g id="SectionHeader">
<g id="TitleArea">
<g id="Bonus buy">
<g id="g7028">
<g id="Clip path group">
<mask id="mask0_0_1" style="mask-type:luminance" maskUnits="userSpaceOnUse" x="0" y="0" width="20" height="20">
<g id="clipPath7034">
<path id="path7032" d="M0 0H20V20H0V0Z" fill="white"/>
</g>
</mask>
<g mask="url(#mask0_0_1)">
<g id="g7030">
<g id="g7036">
<path id="path7038 (Stroke)" d="M11.167 14.3304C11.2618 14.3734 11.3819 14.3787 11.491 14.3188C11.5876 14.2657 11.636 14.1832 11.6587 14.1264C11.6824 14.0668 11.6897 14.0082 11.6897 13.9589C11.6897 13.9579 11.6897 13.9568 11.6897 13.9557L11.6596 10.8474C11.6578 10.664 11.5077 10.5168 11.3243 10.5185C11.141 10.5203 10.9938 10.6704 10.9956 10.8538L11.0167 13.0427L9.37673 10.6679C9.29416 10.5483 9.14341 10.4963 9.00469 10.5396C8.86596 10.5828 8.77149 10.7113 8.77148 10.8566V14.0673C8.77148 14.2507 8.92013 14.3994 9.10351 14.3994C9.28688 14.3994 9.43553 14.2507 9.43553 14.0673V11.9217L11.0011 14.1887L11.0012 14.1888C11.0311 14.232 11.0835 14.2924 11.167 14.3304Z" fill="#36BCFF"/>
</g>
<g id="g7040">
<path id="path7042 (Stroke)" d="M3.11206 11.591C3.11205 11.8164 2.92932 11.9992 2.7039 11.9992C2.60173 11.9992 2.36736 12 2.15936 12.0008C2.13982 12.0009 2.12051 12.001 2.10154 12.0011V11.1829H2.7039C2.92934 11.1829 3.11206 11.3656 3.11206 11.591ZM3.77613 11.591C3.77613 10.9988 3.29604 10.5188 2.7039 10.5188H1.76952C1.58615 10.5188 1.4375 10.6675 1.4375 10.8508V12.3345C1.4375 12.4228 1.47267 12.5075 1.53526 12.5698C1.59785 12.6321 1.68269 12.6669 1.77101 12.6665H1.7731C1.77448 12.6665 1.77655 12.6665 1.77925 12.6665C1.78465 12.6664 1.79263 12.6664 1.80282 12.6664C1.82321 12.6663 1.85257 12.6661 1.88843 12.666C1.96016 12.6657 2.05792 12.6653 2.162 12.6649C2.3705 12.664 2.60334 12.6632 2.7039 12.6632C3.29605 12.6632 3.77612 12.1832 3.77613 11.591Z" fill="#36BCFF"/>
</g>
<g id="g7044">
<path id="path7046 (Stroke)" d="M3.40093 13.1977C3.40093 13.4925 3.16193 13.7315 2.8671 13.7315C2.74771 13.7315 2.47255 13.7324 2.22806 13.7334C2.18461 13.7336 2.14209 13.7338 2.10154 13.734V12.6639H2.8671C3.16192 12.6639 3.40093 12.9029 3.40093 13.1977ZM4.06498 13.1977C4.06497 12.5361 3.52867 11.9998 2.8671 11.9998H1.76952C1.58615 11.9998 1.4375 12.1484 1.4375 12.3318V14.0674C1.4375 14.1557 1.47267 14.2404 1.53526 14.3027C1.59785 14.365 1.68269 14.3998 1.77101 14.3994H1.77347C1.7751 14.3994 1.77754 14.3994 1.78071 14.3994C1.78706 14.3993 1.79644 14.3993 1.80843 14.3992C1.83241 14.3991 1.86692 14.399 1.90908 14.3988C1.99343 14.3984 2.10836 14.398 2.23069 14.3975C2.4757 14.3965 2.74933 14.3955 2.8671 14.3955C3.52867 14.3955 4.06498 13.8592 4.06498 13.1977Z" fill="#36BCFF"/>
</g>
<g id="g7048">
<path id="path7050 (Stroke)" d="M17.2636 14.3995C17.8687 14.3995 18.3791 14.0331 18.524 13.5321C18.5981 13.276 18.5711 12.9945 18.416 12.7422C18.2632 12.4938 18.0037 12.3005 17.6578 12.1729H17.6578C17.4176 12.0843 17.1883 11.9914 17.0186 11.9203C16.9339 11.8849 16.8644 11.8551 16.8163 11.8342C16.7979 11.8262 16.7827 11.8195 16.7709 11.8143C16.6053 11.6851 16.5852 11.3444 16.945 11.2248L16.9631 11.2191L16.9631 11.2191C17.2053 11.1462 17.4374 11.1931 17.6237 11.2708C17.7158 11.3092 17.7912 11.353 17.8428 11.3867C17.8685 11.4035 17.8877 11.4174 17.8995 11.4263C17.9054 11.4308 17.9095 11.4339 17.9115 11.4356C17.9125 11.4364 17.9131 11.4368 17.9131 11.4368C17.9131 11.4368 17.913 11.4367 17.9127 11.4365C17.9126 11.4364 17.9124 11.4363 17.9122 11.4361C17.9121 11.436 17.912 11.4359 17.9119 11.4358C17.9119 11.4358 17.9118 11.4357 17.9117 11.4357C18.0521 11.5535 18.2614 11.5353 18.3794 11.395C18.4974 11.2546 18.4792 11.0452 18.3389 10.9272L18.1252 11.1814C18.3388 10.9272 18.3388 10.9271 18.3386 10.927C18.3386 10.927 18.3385 10.9269 18.3384 10.9269C18.3383 10.9267 18.3381 10.9266 18.338 10.9265C18.3376 10.9262 18.3373 10.9259 18.3368 10.9256C18.336 10.9249 18.3351 10.9241 18.334 10.9231C18.3317 10.9213 18.3289 10.9191 18.3256 10.9164C18.3188 10.911 18.3098 10.904 18.2986 10.8955C18.2763 10.8787 18.245 10.8563 18.2059 10.8308C18.1281 10.7799 18.0166 10.7152 17.8793 10.658C17.6069 10.5443 17.21 10.4512 16.7716 10.5833C15.9128 10.842 15.7055 11.9135 16.4257 12.3831L16.4369 12.3901C16.4481 12.3968 16.4598 12.4028 16.4718 12.4082L16.4718 12.4082H16.4719C16.4719 12.4082 16.4719 12.4083 16.472 12.4083C16.4721 12.4083 16.4722 12.4084 16.4723 12.4084C16.4726 12.4085 16.4729 12.4087 16.4734 12.4089C16.4744 12.4094 16.4758 12.41 16.4776 12.4108C16.4812 12.4124 16.4865 12.4147 16.4933 12.4177C16.5069 12.4237 16.5267 12.4323 16.5519 12.4433C16.6023 12.4652 16.6745 12.4962 16.7622 12.5329C16.9155 12.597 17.1173 12.6792 17.3342 12.7609L17.428 12.7959C17.6744 12.8868 17.7953 13.0006 17.8502 13.09C17.9028 13.1755 17.9107 13.2625 17.8861 13.3475C17.8337 13.5288 17.612 13.7354 17.2636 13.7354C16.8827 13.7354 16.5703 13.5681 16.3886 13.3676C16.2654 13.2318 16.0555 13.2215 15.9196 13.3446C15.7837 13.4678 15.7734 13.6778 15.8966 13.8136C16.2001 14.1484 16.6892 14.3995 17.2636 14.3995Z" fill="#36BCFF"/>
</g>
<g id="g7052">
<path id="path7054 (Stroke)" d="M12.3848 10.8507V13.0642C12.3848 13.3115 12.4473 13.5318 12.5698 13.7244C12.6899 13.9133 12.857 14.0591 13.0427 14.1777V14.1777C13.2464 14.3078 13.503 14.3991 13.8139 14.3995H13.814C14.0779 14.3998 14.3048 14.3382 14.4951 14.2424L14.4951 14.2424C14.9415 14.0176 15.284 13.6374 15.284 13.0618V10.8507C15.284 10.6673 15.1354 10.5186 14.952 10.5186C14.7686 10.5186 14.6199 10.6673 14.6199 10.8507V13.0618C14.6199 13.3153 14.4905 13.5012 14.1965 13.6493H14.1964C14.096 13.6998 13.9714 13.7356 13.8148 13.7355C13.6399 13.7352 13.5058 13.6855 13.4002 13.6181C13.2682 13.5337 13.183 13.4512 13.1302 13.3681C13.0798 13.2889 13.0488 13.1937 13.0488 13.0642V10.8507C13.0488 10.6673 12.9002 10.5186 12.7168 10.5186C12.5334 10.5186 12.3848 10.6673 12.3848 10.8507Z" fill="#36BCFF"/>
</g>
<g id="g7056">
<path id="path7058 (Stroke)" d="M7.57519 12.4589C7.57519 13.1638 7.00373 13.7353 6.29883 13.7353C5.59392 13.7353 5.02244 13.1638 5.02244 12.4589C5.02245 11.754 5.59393 11.1826 6.29883 11.1826C7.00373 11.1826 7.57518 11.754 7.57519 12.4589ZM8.23926 12.4589C8.23926 11.3873 7.37048 10.5185 6.29883 10.5185C5.22718 10.5185 4.3584 11.3873 4.3584 12.4589C4.3584 13.5306 5.22717 14.3994 6.29883 14.3994C7.37048 14.3994 8.23926 13.5306 8.23926 12.4589Z" fill="#36BCFF"/>
</g>
<g id="g7060">
<path id="path7062 (Stroke)" d="M11.3046 19.1381C11.3491 19.3492 11.5562 19.4843 11.7673 19.4399C13.8888 18.9933 15.7193 17.7607 16.9403 16.0611C17.0258 15.9422 17.0375 15.7853 16.9706 15.655C16.9038 15.5246 16.7696 15.4426 16.6231 15.4426H3.37599C3.22947 15.4426 3.09527 15.5246 3.0284 15.6549C2.96154 15.7853 2.97325 15.9421 3.05873 16.0611C4.2716 17.7494 6.08587 18.9774 8.18951 19.4314C8.40039 19.4769 8.60826 19.3428 8.65377 19.132C8.69928 18.9211 8.56521 18.7132 8.35434 18.6677C6.71197 18.3133 5.26231 17.4386 4.18709 16.2238H15.8119C14.7283 17.4479 13.2645 18.3263 11.6064 18.6754C11.3953 18.7198 11.2602 18.927 11.3046 19.1381Z" fill="#36BCFF"/>
</g>
<g id="g7064">
<path id="path7066 (Stroke)" d="M17.9259 9.56676C18.0455 9.56676 18.1586 9.51196 18.2327 9.41804C18.3067 9.32412 18.3337 9.20143 18.3058 9.0851C18.0498 8.01679 17.5928 7.02659 16.978 6.15685C16.9716 6.14729 16.9646 6.13745 16.9568 6.12766C16.8939 6.04831 16.8046 5.9986 16.709 5.98413L15.3579 5.54253C15.279 5.51676 15.194 5.51676 15.1152 5.54253L14.2139 5.8371L14.2155 4.88881C14.2156 4.80588 14.1893 4.72505 14.1405 4.65804L13.2638 3.45564C13.2511 3.43823 13.237 3.42189 13.2216 3.4068L12.8918 3.08351C12.8108 3.00407 12.6992 2.96381 12.5861 2.97319C12.473 2.98257 12.3696 3.04067 12.3027 3.13237L11.5034 4.22889C11.4546 4.29588 11.4283 4.37667 11.4285 4.45957L11.4305 5.83716L10.1211 5.40938C10.0423 5.38362 9.95735 5.38362 9.87852 5.40938L8.56915 5.83718L8.57121 4.45957C8.57133 4.37667 8.54508 4.29588 8.49625 4.22889L7.69694 3.13237C7.63009 3.04067 7.52667 2.98257 7.41358 2.97319C7.30049 2.96381 7.1889 3.00407 7.10785 3.08351L6.77803 3.4068C6.76265 3.42188 6.74853 3.4382 6.73583 3.45561L5.85916 4.65804C5.8103 4.72506 5.78403 4.80588 5.78417 4.88881L5.78572 5.8371L4.88446 5.54253C4.80562 5.51676 4.72061 5.51676 4.64176 5.54253L3.29079 5.98407C3.20993 5.99627 3.13316 6.03373 3.07281 6.09408C3.06757 6.09931 3.06295 6.10422 3.05896 6.10864C3.05497 6.11306 3.05146 6.11716 3.04843 6.1208C3.0454 6.12444 3.04273 6.1278 3.04045 6.13073C3.03817 6.13365 3.03617 6.13629 3.0345 6.13856C3.03282 6.14084 3.03136 6.14285 3.03018 6.14452C3.03001 6.14475 3.02985 6.14498 3.02969 6.1452C3.02951 6.14546 3.0293 6.14571 3.02912 6.14597C2.41058 7.01833 1.95081 8.01235 1.69385 9.08516C1.66599 9.20148 1.69296 9.32416 1.76704 9.41807C1.84111 9.51198 1.95413 9.56676 2.07374 9.56676H17.9259ZM2.58569 8.78553C2.81672 8.03891 3.15769 7.34019 3.58951 6.70834L4.7631 6.32482L6.05591 6.74728C6.17498 6.78619 6.30549 6.76563 6.40684 6.692C6.50819 6.61837 6.5681 6.50061 6.56789 6.37534L6.56563 5.01518L7.33419 3.96104L7.78975 4.586L7.78709 6.3754C7.7869 6.50065 7.8468 6.61841 7.94813 6.69203C8.04947 6.76565 8.17998 6.7862 8.29904 6.7473L9.99983 6.19164L11.7006 6.7473C11.8197 6.7862 11.9502 6.76565 12.0515 6.69203C12.1529 6.61841 12.2128 6.50066 12.2126 6.3754L12.2099 4.586L12.6654 3.96104L13.434 5.01518L13.4318 6.37534C13.4316 6.50061 13.4915 6.6184 13.5928 6.69203C13.6942 6.76566 13.8247 6.78619 13.9438 6.74728L15.2365 6.32482L16.4099 6.70825C16.8418 7.34009 17.1828 8.03884 17.4139 8.78553H2.58569ZM3.06425 6.1032L3.07155 6.09571L3.06059 6.10718C3.06177 6.1059 3.06297 6.10455 3.06425 6.1032ZM3.05787 6.1101C3.05851 6.1094 3.05918 6.10871 3.05985 6.10798C3.05752 6.11052 3.05526 6.11311 3.05301 6.11571C3.05456 6.11392 3.05614 6.11202 3.05787 6.1101ZM3.04749 6.12209C3.04767 6.12187 3.04787 6.12165 3.04806 6.12143C3.04563 6.12434 3.04325 6.12729 3.04091 6.13027C3.04285 6.12779 3.04504 6.12504 3.04749 6.12209ZM3.03387 6.13945C3.03476 6.13824 3.03579 6.13693 3.03687 6.1355C3.03461 6.13848 3.03238 6.14148 3.03021 6.14452C3.03124 6.14306 3.03247 6.14135 3.03387 6.13945ZM16.3262 6.5874C16.3241 6.58411 16.3219 6.58058 16.3196 6.57682C16.3218 6.58038 16.3239 6.58391 16.3262 6.5874ZM3.66976 6.59315C3.6704 6.59223 3.67092 6.59147 3.67125 6.59098C3.67144 6.5907 3.67161 6.59047 3.67171 6.59032C3.67179 6.5902 3.67186 6.59008 3.67188 6.59006C3.67186 6.59009 3.67183 6.59015 3.67179 6.59021C3.67172 6.59031 3.67158 6.59051 3.67142 6.59075C3.6711 6.59122 3.67054 6.59203 3.66985 6.59304C3.66982 6.59308 3.66979 6.59311 3.66976 6.59315ZM3.66704 6.59702C3.66802 6.59563 3.66887 6.59444 3.66953 6.5935C3.66961 6.59338 3.66968 6.59326 3.66976 6.59315C3.66906 6.59416 3.66813 6.59548 3.66704 6.59702Z" fill="#36BCFF"/>
</g>
<g id="g7068">
<path id="path7070 (Stroke)" d="M11.7017 6.74738C11.8208 6.78629 11.9513 6.76574 12.0526 6.69211C12.154 6.61848 12.2139 6.50069 12.2136 6.37542L12.2107 4.586L13.2649 3.14001C13.3387 3.03878 13.3595 2.9083 13.3208 2.78916C13.2821 2.67002 13.1886 2.57667 13.0694 2.53816L11.3666 1.98802L10.3172 0.538564C10.2437 0.437098 10.126 0.37703 10.0008 0.37703C9.87549 0.377031 9.75782 0.437097 9.68436 0.538564L8.6349 1.98802L6.93214 2.53816C6.81294 2.57668 6.71945 2.67002 6.68074 2.78916C6.64203 2.9083 6.66282 3.03878 6.73662 3.14001L7.79082 4.58602L7.78787 6.37542C7.78766 6.50069 7.84754 6.61848 7.94889 6.69211C8.05023 6.76574 8.18075 6.78629 8.29982 6.74738L10.0008 6.1916L11.7017 6.74738ZM10.1221 5.40934C10.0433 5.38358 9.95825 5.38358 9.87942 5.40934L8.56999 5.83721L8.57228 4.45962C8.57241 4.37669 8.54615 4.29587 8.49729 4.22885L7.6857 3.11572L8.99659 2.69217C9.07551 2.66667 9.14428 2.61672 9.19292 2.54955L10.0008 1.43375L10.8086 2.54955L10.818 2.56194C10.8659 2.62286 10.9309 2.66827 11.0049 2.69217L12.3158 3.11572L11.5042 4.22885C11.4554 4.29587 11.4291 4.37669 11.4292 4.45962L11.4315 5.83721L10.1221 5.40934Z" fill="#36BCFF"/>
</g>
<g id="g7072">
<path id="path7074 (Stroke)" d="M6.05672 6.74741C6.1758 6.78632 6.30631 6.76577 6.40766 6.69214C6.509 6.61851 6.56888 6.50072 6.56867 6.37545L6.56641 5.01529L7.3677 3.91623C7.4415 3.81501 7.46228 3.68455 7.42358 3.56541C7.38487 3.44628 7.29135 3.35293 7.17215 3.31442L5.87785 2.89625L5.08023 1.79453C5.00677 1.69306 4.88909 1.63299 4.76383 1.63299C4.63856 1.63299 4.52089 1.69306 4.44743 1.79453L3.64977 2.89625L2.35548 3.31442C2.23628 3.35293 2.14279 3.44628 2.10408 3.56541C2.06537 3.68455 2.08616 3.81501 2.15995 3.91623L2.96121 5.01529L2.95898 6.37545C2.95877 6.50072 3.01865 6.61851 3.12 6.69214C3.22134 6.76577 3.35186 6.78632 3.47093 6.74741L4.76383 6.32496L6.05672 6.74741ZM4.88516 5.54269C4.80633 5.51694 4.72133 5.51694 4.64249 5.54269L3.74113 5.83724L3.7427 4.88895C3.74284 4.80602 3.71657 4.72519 3.66771 4.65818L3.10904 3.89197L4.01141 3.6004C4.09032 3.57491 4.15909 3.52495 4.20773 3.45778L4.76383 2.68971L5.31992 3.45778L5.32928 3.47017C5.3772 3.5311 5.44224 3.5765 5.51622 3.6004L6.41856 3.89197L5.85994 4.65818C5.81109 4.72519 5.78482 4.80602 5.78496 4.88895L5.7865 5.83724L4.88516 5.54269Z" fill="#36BCFF"/>
</g>
<g id="g7076">
<path id="path7078 (Stroke)" d="M16.5289 6.74741C16.648 6.78632 16.7785 6.76577 16.8798 6.69214C16.9812 6.61851 17.041 6.50072 17.0408 6.37545L17.0386 5.01529L17.8399 3.91623C17.9137 3.81501 17.9344 3.68455 17.8957 3.56541C17.857 3.44628 17.7635 3.35293 17.6443 3.31442L16.35 2.89625L15.5524 1.79453C15.4789 1.69306 15.3613 1.63299 15.236 1.63299C15.1107 1.63299 14.9931 1.69306 14.9196 1.79453L14.1219 2.89625L12.8276 3.31442C12.7084 3.35293 12.615 3.44628 12.5762 3.56541C12.5375 3.68455 12.5583 3.81501 12.6321 3.91623L13.4334 5.01529L13.4311 6.37545C13.4309 6.50072 13.4908 6.61851 13.5922 6.69214C13.6935 6.76577 13.824 6.78632 13.9431 6.74741L15.236 6.32496L16.5289 6.74741ZM15.3573 5.54269C15.2785 5.51694 15.1935 5.51694 15.1147 5.54269L14.2133 5.83724L14.2149 4.88895C14.215 4.80602 14.1887 4.72519 14.1399 4.65818L13.5812 3.89197L14.4836 3.6004C14.5625 3.57491 14.6313 3.52495 14.6799 3.45778L15.236 2.68971L15.7921 3.45778L15.8014 3.47017C15.8494 3.5311 15.9144 3.5765 15.9884 3.6004L16.8907 3.89197L16.3321 4.65818C16.2833 4.72519 16.257 4.80602 16.2571 4.88895L16.2587 5.83724L15.3573 5.54269Z" fill="#36BCFF"/>
</g>
<g id="g7080">
<path id="path7082 (Stroke)" d="M19.6094 9.56668C19.8251 9.56668 20 9.3918 20 9.17607C20 8.96033 19.8251 8.78545 19.6094 8.78545H0.390616C0.174879 8.78545 0 8.96033 0 9.17607C0 9.3918 0.174879 9.56668 0.390616 9.56668H19.6094Z" fill="#36BCFF"/>
</g>
<g id="g7084">
<path id="path7086 (Stroke)" d="M19.6094 16.2237C19.8251 16.2237 20 16.0488 20 15.8331C20 15.6174 19.8251 15.4425 19.6094 15.4425H0.390616C0.174879 15.4425 0 15.6174 0 15.8331C0 16.0488 0.174879 16.2237 0.390616 16.2237H19.6094Z" fill="#36BCFF"/>
</g>
<g id="g7088">
<path id="path7090 (Stroke)" d="M3.02673 6.14973C3.02634 6.15029 3.02602 6.15074 3.02581 6.15105C3.02567 6.15125 3.02554 6.15142 3.02547 6.15153L3.02532 6.15173C2.9597 6.24805 2.93996 6.3697 2.9738 6.48321L2.975 6.48727C3.0304 6.67315 3.2138 6.79021 3.40573 6.76222C3.59765 6.73422 3.73998 6.56965 3.73998 6.37569V6.37C3.73998 6.20862 3.64073 6.06385 3.49021 6.00565C3.33969 5.94746 3.16887 5.98781 3.06031 6.10722C3.05641 6.11151 3.05299 6.11547 3.05007 6.11895C3.04715 6.12243 3.04457 6.12563 3.04238 6.12842C3.04018 6.1312 3.03824 6.13372 3.0366 6.13591C3.03495 6.1381 3.03351 6.14007 3.03231 6.14175C3.0311 6.14342 3.03004 6.14491 3.02919 6.14613C3.02887 6.14658 3.02858 6.14704 3.0283 6.14744C3.02777 6.1482 3.02725 6.14897 3.02673 6.14973ZM3.04899 6.12043C3.04929 6.12007 3.04967 6.11973 3.04999 6.11935C3.04854 6.12106 3.04711 6.12279 3.0457 6.12453C3.04675 6.12323 3.04781 6.12183 3.04899 6.12043ZM3.03582 6.137C3.03742 6.13488 3.03932 6.13243 3.04146 6.1297C3.03935 6.13238 3.03729 6.1351 3.03525 6.13783C3.03545 6.13756 3.03562 6.13727 3.03582 6.137ZM3.02873 6.14681C3.02953 6.14567 3.03052 6.14424 3.03168 6.14264C3.03237 6.14168 3.03317 6.14064 3.03402 6.13949C3.03223 6.14191 3.03049 6.14436 3.02876 6.14681H3.02873ZM3.02593 6.1509C3.02582 6.15105 3.02571 6.15117 3.02564 6.15128C3.02549 6.1515 3.02536 6.15169 3.02532 6.15173C3.02552 6.15145 3.02573 6.15119 3.02593 6.1509ZM3.672 6.5901C3.67206 6.59001 3.67213 6.58992 3.67214 6.5899C3.6721 6.58996 3.67197 6.59015 3.67183 6.59036L3.672 6.5901Z" fill="#36BCFF"/>
</g>
<g id="g7092">
<path id="path7094 (Stroke)" d="M16.5857 6.76107C16.7364 6.7886 16.8893 6.72546 16.9767 6.5996C17.0641 6.47374 17.0698 6.30841 16.9914 6.17679C16.9821 6.16125 16.9708 6.14442 16.9575 6.12767C16.8543 5.99739 16.6799 5.94673 16.5229 6.00138C16.3659 6.05605 16.2607 6.20406 16.2607 6.37028V6.37598C16.2607 6.56465 16.3956 6.72638 16.5812 6.76027L16.5857 6.76107ZM16.3452 6.6129C16.3396 6.60585 16.3351 6.59959 16.3316 6.59445C16.328 6.58928 16.3243 6.58342 16.3203 6.57682L16.6045 6.40742L16.3452 6.6129Z" fill="#36BCFF"/>
</g>
</g>
</g>
</g>
</g>
</g>
</g>
</g>
</g>
</g>
</g>
</svg>
