<svg width="20" height="20" viewBox="0 0 20 20" fill="none" xmlns="http://www.w3.org/2000/svg">
<g id="1">
<g id="desktop-main">
<g id="Frame 2135557741">
<g id="category-nav-bar">
<g id="navigation-glass-capsule">
<g id="navigation-items-track"><g id="tab-inactive-New" data-figma-bg-blur-radius="8">
<g id="Must-play slots" clip-path="url(#clip1_0_1)">
<g id="Mask group">
<mask id="mask0_0_1" style="mask-type:luminance" maskUnits="userSpaceOnUse" x="0" y="0" width="20" height="20">
<g id="Group">
<path id="bg" d="M20 0H0V20H20V0Z" fill="white"/>
<g id="Group_2">
<path id="path2815" d="M14.2053 13.4766H16.0328L19.3359 8.03094V6.52344H14.2968V8.08457H17.4759L14.2053 13.4766Z" fill="white"/>
<path id="path2819" d="M1.0022 13.4766H2.8297L6.13278 8.03094V6.52344H1.09372V8.08457H4.27278L1.0022 13.4766Z" fill="white"/>
<path id="path2823" d="M7.60376 13.4766H9.43126L12.7343 8.03094V6.52344H7.69528V8.08457H10.8743L7.60376 13.4766Z" fill="white"/>
</g>
</g>
</mask>
<g mask="url(#mask0_0_1)">
<g id="Group_3">
<g id="g2811">
<g id="g2813">
<path id="path2815_2" d="M14.2053 13.4766H16.0328L19.3359 8.03094V6.52344H14.2968V8.08457H17.4759L14.2053 13.4766Z" fill="#36BCFF"/>
</g>
<g id="g2817">
<path id="path2819_2" d="M1.0022 13.4766H2.8297L6.13278 8.03094V6.52344H1.09372V8.08457H4.27278L1.0022 13.4766Z" fill="#36BCFF"/>
</g>
<g id="g2821">
<path id="path2823_2" d="M7.60376 13.4766H9.43126L12.7343 8.03094V6.52344H7.69528V8.08457H10.8743L7.60376 13.4766Z" fill="#36BCFF"/>
</g>
<g id="g2825">
<g id="Clip path group">
<mask id="mask1_0_1" style="mask-type:luminance" maskUnits="userSpaceOnUse" x="0" y="0" width="20" height="20">
<g id="clipPath2831">
<path id="path2829" d="M0 1.90735e-06H20V20H0V1.90735e-06Z" fill="white"/>
</g>
</mask>
<g mask="url(#mask1_0_1)">
<g id="g2827">
<g id="g2833">
<path id="path2835 (Stroke)" d="M0 3.71093V4.96094H1.56252V3.71093C1.56252 3.27948 1.9123 2.9297 2.34375 2.9297H5.35157C5.78303 2.9297 6.13283 3.27948 6.13283 3.71093V4.96094H7.69532V3.71093C7.69532 2.41653 6.64597 1.36718 5.35157 1.36718H2.34375C1.04936 1.36718 5.13407e-06 2.41653 0 3.71093Z" fill="#36BCFF"/>
</g>
<g id="g2837">
<path id="path2839 (Stroke)" d="M6.13281 3.71093V4.96094H7.69533V3.71093C7.69534 3.27948 8.04511 2.9297 8.47656 2.9297H11.9531C12.3846 2.9297 12.7344 3.27948 12.7344 3.71093V4.96094H14.2969V3.71093C14.2969 2.41653 13.2475 1.36718 11.9531 1.36718H8.47656C7.18217 1.36718 6.13282 2.41653 6.13281 3.71093Z" fill="#36BCFF"/>
</g>
<g id="g2841">
<path id="path2843 (Stroke)" d="M12.7344 3.71093V4.96094H14.2969V3.71093C14.2969 3.27948 14.6467 2.9297 15.0781 2.9297H17.6562C18.0877 2.9297 18.4375 3.27947 18.4375 3.71093V4.96094H20V3.71093C20 2.41653 18.9506 1.36718 17.6562 1.36718H15.0781C13.7837 1.36718 12.7344 2.41653 12.7344 3.71093Z" fill="#36BCFF"/>
</g>
<g id="g2845">
<path id="path2847 (Stroke)" d="M6.13283 16.2891C6.13283 16.7205 5.78303 17.0703 5.35157 17.0703H2.34375C1.9123 17.0703 1.56252 16.7205 1.56252 16.2891V15.0391H0V16.2891C5.19511e-06 17.5835 1.04936 18.6328 2.34375 18.6328H5.35157C6.64597 18.6328 7.69532 17.5835 7.69532 16.2891V15.0391H6.13283V16.2891Z" fill="#36BCFF"/>
</g>
<g id="g2849">
<path id="path2851 (Stroke)" d="M12.7344 16.2891C12.7344 16.7205 12.3846 17.0703 11.9531 17.0703H8.47656C8.04511 17.0703 7.69534 16.7205 7.69533 16.2891V15.0391H6.13281V16.2891C6.13282 17.5835 7.18217 18.6328 8.47656 18.6328H11.9531C13.2475 18.6328 14.2969 17.5835 14.2969 16.2891V15.0391H12.7344V16.2891Z" fill="#36BCFF"/>
</g>
<g id="g2853">
<path id="path2855 (Stroke)" d="M18.4375 16.2891C18.4375 16.7205 18.0877 17.0703 17.6562 17.0703H15.0781C14.6467 17.0703 14.2969 16.7205 14.2969 16.2891V15.0391H12.7344V16.2891C12.7344 17.5835 13.7837 18.6328 15.0781 18.6328H17.6562C18.9506 18.6328 20 17.5835 20 16.2891V15.0391H18.4375V16.2891Z" fill="#36BCFF"/>
</g>
</g>
</g>
</g>
</g>
</g>
</g>
</g>
</g>
</g>
</g>
</g>
</g>
</g>
</g>
</g>
</g>
<defs>
<clipPath id="bgblur_0_0_1_clip_path" transform="translate(30 25)"><rect x="-22" y="-17" width="117" height="54" rx="27"/>
</clipPath><clipPath id="clip1_0_1">
<rect width="20" height="20" fill="white"/>
</clipPath>
</defs>
</svg>
