<svg width="70" height="69" viewBox="0 0 70 69" fill="none" xmlns="http://www.w3.org/2000/svg">
<g id="1">
<g id="desktop-main">
<g id="LeadingProviders">
<g id="Frame 2135557702 &#226;&#128;&#147; Desktop">
<g id="Slider-Track-Wrapper" clip-path="url(#clip0_0_1)">
<g id="Row-1">
<g id="Badge-3 Oaks">
<g id="Circle">
<rect x="-20.4167" y="-20.9999" width="110.833" height="110.833" rx="55.4167" fill="#151624"/>
<rect x="-20.4167" y="-20.9999" width="110.833" height="110.833" rx="55.4167" stroke="#282936" stroke-width="1.16667"/>
<g id="3-OAKS 1">
<g id="Clip path group">
<mask id="mask0_0_1" style="mask-type:luminance" maskUnits="userSpaceOnUse" x="0" y="7" width="70" height="54">
<g id="clip0_2311_44245">
<path id="Vector" d="M69.8383 7.99048H0.186523V60.8417H69.8383V7.99048Z" fill="white"/>
</g>
</mask>
<g mask="url(#mask0_0_1)">
<g id="Group">
<path id="Vector_2" fill-rule="evenodd" clip-rule="evenodd" d="M47.3735 7.99048H54.5167C54.2252 8.23312 53.988 8.54015 53.8546 8.97593C52.8715 9.0205 51.8835 9.15913 50.9007 9.4018C49.7992 9.67414 48.8407 10.3328 48.8407 11.4668C48.8407 11.8332 48.9397 12.1799 49.1075 12.482L49.0978 12.2442L49.2458 12.17C49.3792 12.1007 49.5223 12.0412 49.6609 11.9818C50.0165 11.8332 50.387 11.7094 50.7572 11.6054C52.931 10.9914 56.1319 10.9914 58.3054 11.6054C58.6759 11.7094 59.0465 11.8382 59.402 11.9818C59.5403 12.0363 59.6838 12.1007 59.8172 12.17L59.9652 12.2442L59.9554 12.482C60.1233 12.1799 60.2222 11.8332 60.2222 11.4668C60.2222 10.3328 59.2638 9.66426 58.1622 9.4018C57.115 9.15421 56.0678 9.00563 55.0206 8.97097C55.2379 8.69365 55.5736 8.51537 55.9097 8.34205C56.1221 8.22816 56.3346 8.11923 56.5272 7.99048H61.6891C62.3908 7.99048 62.9637 8.56489 62.9637 9.26809V29.9131C62.9637 30.6163 62.3908 31.1907 61.6891 31.1907H47.3735C46.6721 31.1907 46.0989 30.6163 46.0989 29.9131V9.26809C46.094 8.56489 46.6673 7.99048 47.3735 7.99048ZM55.5984 18.0431C57.4114 17.0081 58.2413 15.8147 58.3451 13.8388C57.6089 16.2554 56.532 17.4241 55.5984 18.0431ZM49.4829 14.953C49.7396 18.4195 53.4743 18.7116 54.5313 20.6726C55.5886 18.7116 59.323 18.4145 59.58 14.953L59.6984 12.3978C57.1446 11.0657 51.9232 11.0657 49.3694 12.3978L49.4829 14.953Z" fill="url(#paint0_linear_0_1)"/>
<path id="Vector_3" fill-rule="evenodd" clip-rule="evenodd" d="M27.8524 7.99048H42.1683C42.8697 7.99048 43.4426 8.56489 43.4426 9.26809V29.9131C43.4426 30.6163 42.8697 31.1907 42.1683 31.1907H27.8524C27.1509 31.1907 26.5779 30.6163 26.5779 29.9131V9.26809C26.5779 8.56489 27.1509 7.99048 27.8524 7.99048ZM36.1563 23.8716C37.9693 22.8366 38.7992 21.6432 38.9026 19.6673C38.1668 22.0839 37.09 23.2526 36.1563 23.8716ZM29.9666 20.9697C30.2235 24.4361 33.958 24.7332 35.015 26.6893C36.0724 24.7283 39.8067 24.4311 40.0637 20.9697L40.1822 18.4145C37.6284 17.0824 32.4069 17.0824 29.853 18.4145L29.9666 20.9697ZM34.3384 14.9926C33.3554 15.0372 32.3674 15.1758 31.3844 15.4185C30.2828 15.6909 29.3245 16.3495 29.3245 17.4835C29.3245 17.8499 29.4233 18.1966 29.5912 18.4986L29.5813 18.261L29.7296 18.1867C29.8629 18.1174 30.0061 18.0579 30.1445 17.9985C30.5001 17.8499 30.8707 17.7261 31.2412 17.6221C33.4147 17.0081 36.6156 17.0081 38.7891 17.6221C39.1597 17.7261 39.5302 17.8549 39.8858 17.9985C40.024 18.053 40.1675 18.1174 40.3009 18.1867L40.4489 18.261L40.4392 18.4986C40.607 18.1966 40.7059 17.8499 40.7059 17.4835C40.7059 16.3495 39.7475 15.681 38.646 15.4185C37.5988 15.1709 36.5516 15.0223 35.5043 14.9877C35.7217 14.7103 36.0574 14.5321 36.3934 14.3588C37.1345 13.9676 37.8558 13.5862 37.9446 12.4919C36.5714 12.6652 37.2627 12.6008 35.9094 13.4377C35.2571 13.7843 34.5903 14.136 34.3384 14.9926Z" fill="url(#paint1_linear_0_1)"/>
<path id="Vector_4" fill-rule="evenodd" clip-rule="evenodd" d="M8.33577 7.99048H10.3957L10.4451 9.07495C10.702 12.5414 14.4365 12.8336 15.4936 14.7946C16.5507 12.8336 20.2853 12.5364 20.5422 9.07495L20.5915 7.99048H22.6514C23.3529 7.99048 23.9259 8.56489 23.9259 9.26809V29.9131C23.9259 30.6163 23.3529 31.1907 22.6514 31.1907H20.5965L20.6607 29.819C18.1068 28.4869 12.8854 28.4869 10.3315 29.819L10.3957 31.1907H8.33577C7.6343 31.1956 7.06128 30.6163 7.06128 29.9131V9.26809C7.06128 8.56489 7.6343 7.99048 8.33577 7.99048ZM19.4059 7.99048C18.6799 10.0554 17.6968 11.1003 16.8323 11.6698C18.4773 10.7289 19.3121 9.65435 19.5295 7.99048H19.4059ZM14.8218 26.4021C13.8388 26.4467 12.8508 26.5853 11.8678 26.828C10.7662 27.1003 9.80786 27.759 9.80786 28.8929C9.80786 29.2594 9.90666 29.606 10.0746 29.9081L10.0647 29.6704L10.2129 29.5962C10.3463 29.5268 10.4895 29.4674 10.6279 29.408C10.9835 29.2594 11.354 29.1356 11.7245 29.0316C13.8981 28.4176 17.099 28.4176 19.2726 29.0316C19.6431 29.1356 20.0136 29.2644 20.3693 29.408C20.5075 29.4625 20.6508 29.5268 20.7842 29.5962L20.9324 29.6704L20.9225 29.9081C21.0905 29.606 21.1892 29.2594 21.1892 28.8929C21.1892 27.759 20.2309 27.0904 19.1294 26.828C18.0821 26.5804 17.0349 26.4318 15.9876 26.3971C16.205 26.1198 16.5408 25.9415 16.8767 25.7682C17.6178 25.377 18.3389 24.9957 18.4279 23.9013C17.0546 24.0746 17.7462 24.0103 16.3927 24.8472C15.7406 25.1889 15.0737 25.5404 14.8218 26.4021Z" fill="url(#paint2_linear_0_1)"/>
<path id="Vector_5" fill-rule="evenodd" clip-rule="evenodd" d="M5.20497 50.9821C8.07535 50.9821 9.83873 49.1945 9.83873 46.763V46.7282C9.83873 44.3314 8.12947 43.4104 6.38094 43.1134L9.6366 39.9984V37.8594H0.937415V40.2906H5.99569L2.92315 43.3857L3.36251 45.1932H4.53847C6.11936 45.1932 7.05753 45.7824 7.05753 46.8321V46.8669C7.05753 47.8275 6.30188 48.4318 5.23468 48.4318C3.93087 48.4318 3.01173 47.877 2.12767 46.8817L0.186523 48.7536C1.28819 50.0611 2.88867 50.9821 5.20497 50.9821Z" fill="white"/>
<path id="Vector_6" fill-rule="evenodd" clip-rule="evenodd" d="M24.2195 50.9825C28.1909 50.9825 31.0762 47.9765 31.0762 44.307V44.2722C31.0762 40.6027 28.2254 37.6367 24.2539 37.6367C20.2825 37.6367 17.3972 40.6427 17.3972 44.307V44.3418C17.3972 48.0161 20.248 50.9825 24.2195 50.9825ZM24.2539 48.3627C21.9716 48.3627 20.3562 46.5207 20.3562 44.307V44.2722C20.3562 42.0589 21.9371 40.2562 24.2195 40.2562C26.5019 40.2562 28.1172 42.0985 28.1172 44.3118V44.3466C28.1172 46.5603 26.5364 48.3627 24.2539 48.3627Z" fill="white"/>
<path id="Vector_7" fill-rule="evenodd" clip-rule="evenodd" d="M31.6638 50.7597H34.5485L35.7237 47.8677H41.168L42.3434 50.7597H45.3022L39.7945 37.7654H37.1815L31.6638 50.7597ZM36.7417 45.3618L38.4509 41.1774L40.1602 45.3618H36.7417Z" fill="white"/>
<path id="Vector_8" fill-rule="evenodd" clip-rule="evenodd" d="M47.293 50.7591H50.1281V46.8173L51.6152 45.2676L55.6062 50.7591H59.0053L53.5264 43.3313L58.7681 37.8594H55.3496L50.1281 43.4996V37.8594H47.293V50.7591Z" fill="white"/>
<path id="Vector_9" fill-rule="evenodd" clip-rule="evenodd" d="M65.1109 50.9474C67.8873 50.9474 69.8386 49.5112 69.8386 46.9462V46.9114C69.8386 44.6633 68.3665 43.7223 65.7584 43.0392C63.5354 42.4696 62.9817 42.1922 62.9817 41.3455V41.306C62.9817 40.6768 63.5504 40.1819 64.637 40.1819C65.7239 40.1819 66.8453 40.662 67.9813 41.4543L69.4534 39.3153C68.1488 38.2652 66.5486 37.676 64.6714 37.676C62.0438 37.676 60.166 39.2262 60.166 41.5634V41.5981C60.166 44.1584 61.8408 44.8812 64.4343 45.5447C66.5883 46.0995 67.0278 46.466 67.0278 47.184V47.2187C67.0278 47.9762 66.3316 48.4367 65.1705 48.4367C63.6984 48.4367 62.4879 47.8276 61.3271 46.8718L59.6523 48.8824C61.1941 50.2639 63.1649 50.9474 65.1109 50.9474Z" fill="white"/>
<path id="Vector_10" fill-rule="evenodd" clip-rule="evenodd" d="M3.01163 60.8416C3.995 60.8416 4.75538 60.4551 5.30891 59.9849V57.6474H2.97239V58.6726H4.16265V59.4401C3.86123 59.658 3.48132 59.7619 3.05147 59.7619C2.09784 59.7619 1.42602 59.0388 1.42602 58.0535V58.0387C1.42602 57.1225 2.10795 56.3598 2.96764 56.3598C3.59011 56.3598 3.96052 56.5581 4.37014 56.9046L5.11629 56.0033C4.55799 55.528 3.97003 55.2654 3.00688 55.2654C1.38143 55.2654 0.191177 56.5185 0.191177 58.0535V58.0683C0.186421 59.6628 1.33743 60.8416 3.01163 60.8416Z" fill="white"/>
<path id="Vector_11" fill-rule="evenodd" clip-rule="evenodd" d="M13.3547 60.7476H14.5599L15.0492 59.5392H17.3215L17.8108 60.7476H19.0456L16.7436 55.3201H15.652L13.3547 60.7476ZM15.4742 58.4943L16.1901 56.7463L16.9065 58.4943H15.4742Z" fill="white"/>
<path id="Vector_12" fill-rule="evenodd" clip-rule="evenodd" d="M27.2615 60.748H28.4172V57.252L29.9143 59.5349H29.9487L31.4606 57.232V60.748H32.636V55.3601H31.3619L29.9487 57.6381L28.5361 55.3601H27.2615V60.748Z" fill="white"/>
<path id="Vector_13" d="M42.5353 55.3601H41.3547V60.748H42.5353V55.3601Z" fill="white"/>
<path id="Vector_14" fill-rule="evenodd" clip-rule="evenodd" d="M51.2556 60.748H52.4261V57.3212L55.0297 60.748H56.0327V55.3601H54.8667V58.6782L52.3471 55.3601H51.2556V60.748Z" fill="white"/>
<path id="Vector_15" fill-rule="evenodd" clip-rule="evenodd" d="M67.2838 60.8416C68.2666 60.8416 69.0275 60.4551 69.5802 59.9849V57.6474H67.2437V58.6726H68.4348V59.4401C68.1332 59.658 67.7529 59.7619 67.3228 59.7619C66.3699 59.7619 65.6926 59.0388 65.6926 58.0535V58.0387C65.6926 57.1225 66.3748 56.3598 67.2343 56.3598C67.8567 56.3598 68.2272 56.5581 68.6368 56.9046L69.3831 56.0033C68.8248 55.528 68.2366 55.2654 67.2737 55.2654C65.6487 55.2654 64.458 56.5185 64.458 58.0535V58.0683C64.458 59.6628 65.6135 60.8416 67.2838 60.8416Z" fill="white"/>
</g>
</g>
</g>
</g>
</g>
</g>
</g>
</g>
</g>
</g>
</g>
</g>
<defs>
<linearGradient id="paint0_linear_0_1" x1="62.1348" y1="8.90004" x2="47.0432" y2="30.0151" gradientUnits="userSpaceOnUse">
<stop stop-color="#F8B900"/>
<stop offset="1" stop-color="#E67508"/>
</linearGradient>
<linearGradient id="paint1_linear_0_1" x1="42.6182" y1="8.90011" x2="27.5264" y2="30.0151" gradientUnits="userSpaceOnUse">
<stop stop-color="#F8B900"/>
<stop offset="1" stop-color="#E67508"/>
</linearGradient>
<linearGradient id="paint2_linear_0_1" x1="23.1011" y1="8.90004" x2="8.00913" y2="30.0151" gradientUnits="userSpaceOnUse">
<stop stop-color="#F8B900"/>
<stop offset="1" stop-color="#E67508"/>
</linearGradient>
<clipPath id="clip0_0_1">
<rect width="1280" height="140" fill="white" transform="translate(-175 -35.5833)"/>
</clipPath>
</defs>
</svg>
